<svg width="223" height="37" viewBox="0 0 223 37" fill="none" xmlns="http://www.w3.org/2000/svg">
<path d="M38.0329 30V8.96471H52.0094V12.3529H41.8729V17.7459H51.4447V21.1341H41.8729V26.6118H52.0094V30H38.0329ZM60.9287 30.3388C59.3099 30.3388 57.8699 30 56.6087 29.3224C55.3664 28.6447 54.3876 27.7129 53.6723 26.5271C52.957 25.3412 52.5993 23.9953 52.5993 22.4894V8.96471H56.4393V22.2918C56.4393 23.1576 56.6276 23.9388 57.004 24.6353C57.3993 25.3318 57.9358 25.8776 58.6135 26.2729C59.2911 26.6494 60.0629 26.8376 60.9287 26.8376C61.8135 26.8376 62.5852 26.6494 63.244 26.2729C63.9217 25.8776 64.4487 25.3318 64.8252 24.6353C65.2205 23.9388 65.4182 23.1576 65.4182 22.2918V8.96471H69.2582V22.4894C69.2582 23.9953 68.9005 25.3412 68.1852 26.5271C67.4699 27.7129 66.4817 28.6447 65.2205 29.3224C63.9782 30 62.5476 30.3388 60.9287 30.3388ZM84.6391 30.3388C83.3026 30.3388 82.0603 30.0941 80.9121 29.6047C79.7826 29.1153 78.8038 28.4376 77.9756 27.5718C77.1662 26.6871 76.5732 25.6612 76.1968 24.4941L79.3873 23.1106C79.8956 24.3153 80.6297 25.2659 81.5897 25.9624C82.5497 26.64 83.6321 26.9788 84.8368 26.9788C85.5144 26.9788 86.0979 26.8753 86.5873 26.6682C87.0956 26.4424 87.4815 26.1412 87.745 25.7647C88.0273 25.3882 88.1685 24.9365 88.1685 24.4094C88.1685 23.7882 87.9803 23.28 87.6038 22.8847C87.2462 22.4706 86.7003 22.1506 85.9662 21.9247L81.9285 20.6259C80.2909 20.1176 79.0579 19.3553 78.2297 18.3388C77.4015 17.3224 76.9873 16.1271 76.9873 14.7529C76.9873 13.5482 77.2791 12.4847 77.8626 11.5624C78.465 10.64 79.2932 9.92471 80.3473 9.41647C81.4203 8.88941 82.6438 8.62588 84.0179 8.62588C85.2791 8.62588 86.4368 8.85177 87.4909 9.30353C88.545 9.73647 89.4485 10.3482 90.2015 11.1388C90.9732 11.9106 91.5473 12.8235 91.9238 13.8776L88.7615 15.2894C88.3473 14.2353 87.7262 13.4259 86.8979 12.8612C86.0697 12.2776 85.1097 11.9859 84.0179 11.9859C83.3779 11.9859 82.8132 12.0988 82.3238 12.3247C81.8344 12.5318 81.4485 12.8329 81.1662 13.2282C80.9026 13.6047 80.7709 14.0565 80.7709 14.5835C80.7709 15.1671 80.9591 15.6847 81.3356 16.1365C81.7121 16.5694 82.2862 16.9082 83.0579 17.1529L86.9262 18.3671C88.6015 18.9129 89.8532 19.6659 90.6815 20.6259C91.5285 21.5859 91.952 22.7718 91.952 24.1835C91.952 25.3882 91.6415 26.4518 91.0203 27.3741C90.3991 28.2965 89.5426 29.0212 88.4509 29.5482C87.3591 30.0753 86.0885 30.3388 84.6391 30.3388ZM100.102 30.1694C98.3698 30.1694 97.0239 29.6988 96.0639 28.7576C95.1227 27.7976 94.6521 26.4518 94.6521 24.72V17.9435H91.998V14.64H92.2804C93.0333 14.64 93.6168 14.4424 94.0309 14.0471C94.4451 13.6518 94.6521 13.0776 94.6521 12.3247V11.1388H98.3509V14.64H101.88V17.9435H98.3509V24.5224C98.3509 25.0306 98.4357 25.4635 98.6051 25.8212C98.7933 26.1788 99.0757 26.4518 99.4521 26.64C99.8474 26.8282 100.346 26.9224 100.949 26.9224C101.08 26.9224 101.231 26.9129 101.4 26.8941C101.589 26.8753 101.767 26.8565 101.937 26.8376V30C101.673 30.0376 101.372 30.0753 101.033 30.1129C100.694 30.1506 100.384 30.1694 100.102 30.1694ZM108.24 30.3388C107.055 30.3388 106.019 30.0753 105.135 29.5482C104.269 29.0212 103.6 28.2871 103.13 27.3459C102.678 26.4047 102.452 25.3035 102.452 24.0424V14.64H106.151V23.7318C106.151 24.3718 106.273 24.9365 106.518 25.4259C106.782 25.8965 107.149 26.2729 107.619 26.5553C108.109 26.8188 108.655 26.9506 109.257 26.9506C109.859 26.9506 110.396 26.8188 110.866 26.5553C111.337 26.2729 111.704 25.8871 111.967 25.3976C112.231 24.9082 112.363 24.3247 112.363 23.6471V14.64H116.062V30H112.56V26.9788L112.871 27.5153C112.513 28.4565 111.92 29.1624 111.092 29.6329C110.283 30.1035 109.332 30.3388 108.24 30.3388ZM124.643 30.3388C123.156 30.3388 121.829 29.9906 120.662 29.2941C119.495 28.5788 118.573 27.6094 117.895 26.3859C117.218 25.1624 116.879 23.8071 116.879 22.32C116.879 20.8141 117.218 19.4588 117.895 18.2541C118.573 17.0494 119.495 16.0894 120.662 15.3741C121.848 14.6588 123.166 14.3012 124.615 14.3012C125.782 14.3012 126.818 14.5365 127.721 15.0071C128.643 15.4588 129.368 16.0988 129.895 16.9271L129.331 17.6894V8.62588H133.029V30H129.528V27.0353L129.923 27.7694C129.396 28.5976 128.662 29.2376 127.721 29.6894C126.78 30.1224 125.754 30.3388 124.643 30.3388ZM125.039 26.9506C125.886 26.9506 126.629 26.7529 127.269 26.3576C127.909 25.9624 128.408 25.4165 128.766 24.72C129.142 24.0235 129.331 23.2235 129.331 22.32C129.331 21.4353 129.142 20.6447 128.766 19.9482C128.408 19.2329 127.909 18.6776 127.269 18.2824C126.629 17.8871 125.886 17.6894 125.039 17.6894C124.211 17.6894 123.467 17.8965 122.808 18.3106C122.149 18.7059 121.632 19.2518 121.255 19.9482C120.898 20.6259 120.719 21.4165 120.719 22.32C120.719 23.2235 120.898 24.0235 121.255 24.72C121.632 25.4165 122.149 25.9624 122.808 26.3576C123.467 26.7529 124.211 26.9506 125.039 26.9506ZM136.334 36.24C135.92 36.24 135.515 36.2024 135.12 36.1271C134.725 36.0706 134.367 35.9671 134.047 35.8165V32.7106C134.292 32.7671 134.583 32.8235 134.922 32.88C135.28 32.9365 135.609 32.9647 135.91 32.9647C136.758 32.9647 137.369 32.7671 137.746 32.3718C138.141 31.9765 138.489 31.4588 138.79 30.8188L139.807 28.4471L139.75 31.5529L133.059 14.64H137.04L141.727 27.12H140.315L144.974 14.64H148.983L142.292 31.5529C141.896 32.5506 141.416 33.3976 140.852 34.0941C140.287 34.7906 139.628 35.3176 138.875 35.6753C138.141 36.0518 137.294 36.24 136.334 36.24ZM150.621 30L157.878 8.96471H162.847L170.104 30H165.925L164.428 25.4824H156.297L154.772 30H150.621ZM157.398 22.0941H163.327L159.826 11.6188H160.899L157.398 22.0941ZM175.979 30.3388C174.341 30.3388 172.911 29.9529 171.687 29.1812C170.482 28.3906 169.654 27.3271 169.202 25.9906L171.969 24.6635C172.365 25.5294 172.911 26.2071 173.607 26.6965C174.322 27.1859 175.113 27.4306 175.979 27.4306C176.656 27.4306 177.193 27.28 177.588 26.9788C177.984 26.6776 178.181 26.2824 178.181 25.7929C178.181 25.4918 178.096 25.2471 177.927 25.0588C177.776 24.8518 177.56 24.6824 177.278 24.5506C177.014 24.4 176.722 24.2776 176.402 24.1835L173.889 23.4776C172.591 23.1012 171.602 22.5271 170.925 21.7553C170.266 20.9835 169.936 20.0706 169.936 19.0165C169.936 18.0753 170.172 17.2565 170.642 16.56C171.132 15.8447 171.8 15.2894 172.647 14.8941C173.513 14.4988 174.501 14.3012 175.612 14.3012C177.061 14.3012 178.341 14.6494 179.452 15.3459C180.562 16.0424 181.353 17.0212 181.824 18.2824L179 19.6094C178.736 18.9129 178.294 18.3576 177.673 17.9435C177.052 17.5294 176.355 17.3224 175.584 17.3224C174.962 17.3224 174.473 17.4635 174.115 17.7459C173.758 18.0282 173.579 18.3953 173.579 18.8471C173.579 19.1294 173.654 19.3741 173.805 19.5812C173.955 19.7882 174.162 19.9576 174.426 20.0894C174.708 20.2212 175.028 20.3435 175.386 20.4565L177.842 21.1906C179.104 21.5671 180.073 22.1318 180.751 22.8847C181.447 23.6376 181.795 24.56 181.795 25.6518C181.795 26.5741 181.551 27.3929 181.061 28.1082C180.572 28.8047 179.894 29.3506 179.028 29.7459C178.162 30.1412 177.146 30.3388 175.979 30.3388ZM188.482 30.3388C186.845 30.3388 185.414 29.9529 184.191 29.1812C182.986 28.3906 182.158 27.3271 181.706 25.9906L184.473 24.6635C184.868 25.5294 185.414 26.2071 186.111 26.6965C186.826 27.1859 187.617 27.4306 188.482 27.4306C189.16 27.4306 189.697 27.28 190.092 26.9788C190.487 26.6776 190.685 26.2824 190.685 25.7929C190.685 25.4918 190.6 25.2471 190.431 25.0588C190.28 24.8518 190.064 24.6824 189.781 24.5506C189.518 24.4 189.226 24.2776 188.906 24.1835L186.393 23.4776C185.094 23.1012 184.106 22.5271 183.428 21.7553C182.77 20.9835 182.44 20.0706 182.44 19.0165C182.44 18.0753 182.675 17.2565 183.146 16.56C183.635 15.8447 184.304 15.2894 185.151 14.8941C186.017 14.4988 187.005 14.3012 188.115 14.3012C189.565 14.3012 190.845 14.6494 191.955 15.3459C193.066 16.0424 193.857 17.0212 194.327 18.2824L191.504 19.6094C191.24 18.9129 190.798 18.3576 190.177 17.9435C189.555 17.5294 188.859 17.3224 188.087 17.3224C187.466 17.3224 186.977 17.4635 186.619 17.7459C186.261 18.0282 186.082 18.3953 186.082 18.8471C186.082 19.1294 186.158 19.3741 186.308 19.5812C186.459 19.7882 186.666 19.9576 186.93 20.0894C187.212 20.2212 187.532 20.3435 187.89 20.4565L190.346 21.1906C191.607 21.5671 192.577 22.1318 193.254 22.8847C193.951 23.6376 194.299 24.56 194.299 25.6518C194.299 26.5741 194.054 27.3929 193.565 28.1082C193.075 28.8047 192.398 29.3506 191.532 29.7459C190.666 30.1412 189.65 30.3388 188.482 30.3388ZM195.141 30V14.64H198.84V30H195.141ZM195.141 12.9176V8.96471H198.84V12.9176H195.141ZM206.1 30.3388C204.462 30.3388 203.032 29.9529 201.808 29.1812C200.604 28.3906 199.775 27.3271 199.324 25.9906L202.091 24.6635C202.486 25.5294 203.032 26.2071 203.728 26.6965C204.444 27.1859 205.234 27.4306 206.1 27.4306C206.778 27.4306 207.314 27.28 207.71 26.9788C208.105 26.6776 208.302 26.2824 208.302 25.7929C208.302 25.4918 208.218 25.2471 208.048 25.0588C207.898 24.8518 207.681 24.6824 207.399 24.5506C207.135 24.4 206.844 24.2776 206.524 24.1835L204.011 23.4776C202.712 23.1012 201.724 22.5271 201.046 21.7553C200.387 20.9835 200.058 20.0706 200.058 19.0165C200.058 18.0753 200.293 17.2565 200.764 16.56C201.253 15.8447 201.921 15.2894 202.768 14.8941C203.634 14.4988 204.622 14.3012 205.733 14.3012C207.182 14.3012 208.462 14.6494 209.573 15.3459C210.684 16.0424 211.474 17.0212 211.945 18.2824L209.121 19.6094C208.858 18.9129 208.415 18.3576 207.794 17.9435C207.173 17.5294 206.477 17.3224 205.705 17.3224C205.084 17.3224 204.594 17.4635 204.237 17.7459C203.879 18.0282 203.7 18.3953 203.7 18.8471C203.7 19.1294 203.775 19.3741 203.926 19.5812C204.077 19.7882 204.284 19.9576 204.547 20.0894C204.83 20.2212 205.15 20.3435 205.507 20.4565L207.964 21.1906C209.225 21.5671 210.194 22.1318 210.872 22.8847C211.568 23.6376 211.917 24.56 211.917 25.6518C211.917 26.5741 211.672 27.3929 211.182 28.1082C210.693 28.8047 210.015 29.3506 209.15 29.7459C208.284 30.1412 207.267 30.3388 206.1 30.3388ZM219.761 30.1694C218.03 30.1694 216.684 29.6988 215.724 28.7576C214.783 27.7976 214.312 26.4518 214.312 24.72V17.9435H211.658V14.64H211.94C212.693 14.64 213.277 14.4424 213.691 14.0471C214.105 13.6518 214.312 13.0776 214.312 12.3247V11.1388H218.011V14.64H221.54V17.9435H218.011V24.5224C218.011 25.0306 218.096 25.4635 218.265 25.8212C218.453 26.1788 218.736 26.4518 219.112 26.64C219.507 26.8282 220.006 26.9224 220.609 26.9224C220.74 26.9224 220.891 26.9129 221.06 26.8941C221.249 26.8753 221.427 26.8565 221.597 26.8376V30C221.333 30.0376 221.032 30.0753 220.693 30.1129C220.354 30.1506 220.044 30.1694 219.761 30.1694Z" fill="black"/>
<circle cx="9.5" cy="16.5" r="9.5" fill="#3461FF"/>
<path d="M34.5192 15.6362C35.1807 16.0221 35.1807 16.9779 34.5192 17.3638L19.5039 26.1227C18.8372 26.5116 18 26.0308 18 25.259L18 7.74104C18 6.96925 18.8372 6.48837 19.5039 6.87726L27 11.25L34.5192 15.6362Z" fill="#3461FF"/>
</svg>
