<svg width="223" height="37" viewBox="0 0 223 37" fill="none" xmlns="http://www.w3.org/2000/svg">
<g xmlns="http://www.w3.org/2000/svg" filter="url(#filter0_d_15_239)"  transform="scale(0.9) translate(15 -7.5)" >
<path d="M35.0035 33.4999V15.405H47.0263V18.3196H38.3067V22.9587H46.5405V25.8733H38.3067V30.5853H47.0263V33.4999H35.0035ZM54.6988 33.7913C53.3063 33.7913 52.0676 33.4999 50.9827 32.917C49.914 32.334 49.072 31.5325 48.4567 30.5124C47.8414 29.4923 47.5337 28.3345 47.5337 27.0392V15.405H50.837V26.8691C50.837 27.614 50.9989 28.286 51.3227 28.8851C51.6628 29.4842 52.1242 29.9538 52.7072 30.2938C53.2901 30.6177 53.954 30.7796 54.6988 30.7796C55.4598 30.7796 56.1237 30.6177 56.6905 30.2938C57.2734 29.9538 57.7268 29.4842 58.0506 28.8851C58.3906 28.286 58.5607 27.614 58.5607 26.8691V15.405H61.8639V27.0392C61.8639 28.3345 61.5562 29.4923 60.9409 30.5124C60.3256 31.5325 59.4755 32.334 58.3906 32.917C57.322 33.4999 56.0913 33.7913 54.6988 33.7913ZM75.0948 33.7913C73.9451 33.7913 72.8765 33.5808 71.8887 33.1598C70.9172 32.7388 70.0752 32.1559 69.3627 31.4111C68.6665 30.65 68.1564 29.7676 67.8326 28.7636L70.5772 27.5735C71.0143 28.6098 71.6458 29.4275 72.4716 30.0266C73.2975 30.6096 74.2285 30.901 75.2648 30.901C75.8477 30.901 76.3497 30.812 76.7707 30.6338C77.2079 30.4395 77.5398 30.1805 77.7665 29.8566C78.0094 29.5328 78.1308 29.1442 78.1308 28.6908C78.1308 28.1564 77.9689 27.7192 77.6451 27.3792C77.3374 27.023 76.8678 26.7477 76.2363 26.5534L72.7631 25.4361C71.3544 24.9989 70.2938 24.3432 69.5813 23.4688C68.8689 22.5944 68.5126 21.5662 68.5126 20.3841C68.5126 19.3478 68.7636 18.433 69.2656 17.6396C69.7837 16.8461 70.4962 16.2308 71.403 15.7936C72.3259 15.3403 73.3784 15.1136 74.5604 15.1136C75.6453 15.1136 76.6412 15.3079 77.5479 15.6965C78.4547 16.0689 79.2319 16.5952 79.8796 17.2752C80.5435 17.9391 81.0374 18.7244 81.3612 19.6312L78.6409 20.8456C78.2847 19.9389 77.7503 19.2426 77.0379 18.7568C76.3254 18.2549 75.4996 18.0039 74.5604 18.0039C74.0099 18.0039 73.5241 18.101 73.1031 18.2953C72.6821 18.4735 72.3502 18.7325 72.1073 19.0726C71.8806 19.3964 71.7673 19.785 71.7673 20.2384C71.7673 20.7404 71.9292 21.1857 72.2531 21.5743C72.5769 21.9467 73.0708 22.2382 73.7346 22.4487L77.0622 23.4931C78.5033 23.9626 79.58 24.6103 80.2925 25.4361C81.0212 26.2619 81.3855 27.2821 81.3855 28.4965C81.3855 29.5328 81.1183 30.4476 80.584 31.2411C80.0496 32.0345 79.3129 32.6579 78.3737 33.1113C77.4346 33.5646 76.3416 33.7913 75.0948 33.7913ZM88.3958 33.6456C86.9061 33.6456 85.7483 33.2408 84.9225 32.4312C84.1129 31.6054 83.7081 30.4476 83.7081 28.9579V23.1287H81.425V20.287H81.6679C82.3156 20.287 82.8175 20.117 83.1738 19.7769C83.53 19.4369 83.7081 18.943 83.7081 18.2953V17.2752H86.8899V20.287H89.926V23.1287H86.8899V28.7879C86.8899 29.2251 86.9628 29.5975 87.1085 29.9052C87.2704 30.2128 87.5133 30.4476 87.8371 30.6096C88.1772 30.7715 88.6063 30.8524 89.1244 30.8524C89.2378 30.8524 89.3673 30.8443 89.513 30.8282C89.675 30.812 89.8288 30.7958 89.9745 30.7796V33.4999C89.7478 33.5323 89.4888 33.5646 89.1973 33.597C88.9058 33.6294 88.6387 33.6456 88.3958 33.6456ZM95.397 33.7913C94.3769 33.7913 93.4863 33.5646 92.7253 33.1113C91.9804 32.6579 91.4056 32.0264 91.0008 31.2168C90.6122 30.4072 90.4179 29.4599 90.4179 28.375V20.287H93.5996V28.1079C93.5996 28.6584 93.7049 29.1442 93.9154 29.5652C94.1421 29.97 94.4578 30.2938 94.8626 30.5367C95.2836 30.7634 95.7532 30.8767 96.2714 30.8767C96.7895 30.8767 97.251 30.7634 97.6558 30.5367C98.0606 30.2938 98.3763 29.9619 98.603 29.5409C98.8297 29.1199 98.9431 28.6179 98.9431 28.035V20.287H102.125V33.4999H99.1131V30.901L99.3803 31.3625C99.0726 32.1721 98.5626 32.7793 97.8501 33.1841C97.1538 33.5889 96.3361 33.7913 95.397 33.7913ZM109.507 33.7913C108.228 33.7913 107.086 33.4918 106.082 32.8927C105.078 32.2774 104.285 31.4435 103.702 30.391C103.119 29.3385 102.828 28.1726 102.828 26.8934C102.828 25.5981 103.119 24.4322 103.702 23.3959C104.285 22.3596 105.078 21.5338 106.082 20.9185C107.103 20.3032 108.236 19.9955 109.483 19.9955C110.487 19.9955 111.377 20.1979 112.155 20.6027C112.948 20.9914 113.571 21.5419 114.025 22.2544L113.539 22.9101V15.1136H116.721V33.4999H113.709V30.9496L114.049 31.5811C113.596 32.2936 112.964 32.8441 112.155 33.2327C111.345 33.6051 110.462 33.7913 109.507 33.7913ZM109.847 30.8767C110.576 30.8767 111.215 30.7067 111.766 30.3667C112.316 30.0266 112.746 29.5571 113.053 28.9579C113.377 28.3588 113.539 27.6707 113.539 26.8934C113.539 26.1324 113.377 25.4523 113.053 24.8532C112.746 24.2379 112.316 23.7602 111.766 23.4202C111.215 23.0802 110.576 22.9101 109.847 22.9101C109.135 22.9101 108.495 23.0883 107.928 23.4445C107.362 23.7845 106.916 24.2541 106.592 24.8532C106.285 25.4361 106.131 26.1162 106.131 26.8934C106.131 27.6707 106.285 28.3588 106.592 28.9579C106.916 29.5571 107.362 30.0266 107.928 30.3667C108.495 30.7067 109.135 30.8767 109.847 30.8767ZM119.563 38.8676C119.207 38.8676 118.859 38.8352 118.519 38.7705C118.179 38.7219 117.871 38.6328 117.596 38.5033V35.8316C117.807 35.8801 118.058 35.9287 118.349 35.9773C118.657 36.0259 118.94 36.0502 119.199 36.0502C119.928 36.0502 120.454 35.8801 120.778 35.5401C121.118 35.2001 121.417 34.7548 121.677 34.2042L122.551 32.164L122.502 34.8357L116.746 20.287H120.171L124.203 31.0225H122.988L126.996 20.287H130.445L124.688 34.8357C124.348 35.6939 123.935 36.4226 123.45 37.0217C122.964 37.6208 122.397 38.0742 121.749 38.3818C121.118 38.7057 120.389 38.8676 119.563 38.8676ZM129.257 33.4999L135.499 15.405H139.774L146.016 33.4999H142.421L141.134 29.6137H134.139L132.827 33.4999H129.257ZM135.086 26.6991H140.187L137.175 17.6881H138.098L135.086 26.6991ZM151.07 33.7913C149.661 33.7913 148.431 33.4594 147.378 32.7955C146.342 32.1154 145.629 31.2006 145.241 30.0509L147.621 28.9094C147.961 29.6542 148.431 30.2371 149.03 30.6581C149.645 31.0791 150.325 31.2896 151.07 31.2896C151.653 31.2896 152.114 31.1601 152.454 30.901C152.794 30.6419 152.964 30.3019 152.964 29.8809C152.964 29.6218 152.892 29.4113 152.746 29.2494C152.616 29.0713 152.43 28.9256 152.187 28.8122C151.961 28.6827 151.71 28.5774 151.434 28.4965L149.273 27.8893C148.155 27.5654 147.305 27.0716 146.722 26.4077C146.156 25.7438 145.872 24.9585 145.872 24.0517C145.872 23.2421 146.075 22.5377 146.479 21.9386C146.9 21.3233 147.475 20.8456 148.204 20.5056C148.949 20.1656 149.799 19.9955 150.754 19.9955C152.001 19.9955 153.102 20.2951 154.057 20.8942C155.013 21.4933 155.693 22.3353 156.098 23.4202L153.669 24.5618C153.442 23.9626 153.062 23.485 152.527 23.1287C151.993 22.7725 151.394 22.5944 150.73 22.5944C150.196 22.5944 149.775 22.7158 149.467 22.9587C149.159 23.2016 149.005 23.5174 149.005 23.906C149.005 24.1488 149.07 24.3593 149.2 24.5375C149.329 24.7156 149.507 24.8613 149.734 24.9747C149.977 25.088 150.252 25.1932 150.56 25.2904L152.673 25.9219C153.758 26.2457 154.592 26.7315 155.175 27.3792C155.774 28.0269 156.073 28.8203 156.073 29.7595C156.073 30.5529 155.863 31.2573 155.442 31.8726C155.021 32.4717 154.438 32.9412 153.693 33.2813C152.948 33.6213 152.074 33.7913 151.07 33.7913ZM161.826 33.7913C160.417 33.7913 159.186 33.4594 158.134 32.7955C157.098 32.1154 156.385 31.2006 155.997 30.0509L158.377 28.9094C158.717 29.6542 159.186 30.2371 159.786 30.6581C160.401 31.0791 161.081 31.2896 161.826 31.2896C162.409 31.2896 162.87 31.1601 163.21 30.901C163.55 30.6419 163.72 30.3019 163.72 29.8809C163.72 29.6218 163.647 29.4113 163.502 29.2494C163.372 29.0713 163.186 28.9256 162.943 28.8122C162.716 28.6827 162.465 28.5774 162.19 28.4965L160.028 27.8893C158.911 27.5654 158.061 27.0716 157.478 26.4077C156.911 25.7438 156.628 24.9585 156.628 24.0517C156.628 23.2421 156.831 22.5377 157.235 21.9386C157.656 21.3233 158.231 20.8456 158.96 20.5056C159.705 20.1656 160.555 19.9955 161.51 19.9955C162.757 19.9955 163.858 20.2951 164.813 20.8942C165.769 21.4933 166.449 22.3353 166.854 23.4202L164.425 24.5618C164.198 23.9626 163.817 23.485 163.283 23.1287C162.749 22.7725 162.15 22.5944 161.486 22.5944C160.951 22.5944 160.53 22.7158 160.223 22.9587C159.915 23.2016 159.761 23.5174 159.761 23.906C159.761 24.1488 159.826 24.3593 159.956 24.5375C160.085 24.7156 160.263 24.8613 160.49 24.9747C160.733 25.088 161.008 25.1932 161.316 25.2904L163.429 25.9219C164.514 26.2457 165.348 26.7315 165.931 27.3792C166.53 28.0269 166.829 28.8203 166.829 29.7595C166.829 30.5529 166.619 31.2573 166.198 31.8726C165.777 32.4717 165.194 32.9412 164.449 33.2813C163.704 33.6213 162.83 33.7913 161.826 33.7913ZM167.554 33.4999V20.287H170.736V33.4999H167.554ZM167.554 18.8054V15.405H170.736V18.8054H167.554ZM176.981 33.7913C175.572 33.7913 174.341 33.4594 173.289 32.7955C172.253 32.1154 171.54 31.2006 171.152 30.0509L173.532 28.9094C173.872 29.6542 174.341 30.2371 174.941 30.6581C175.556 31.0791 176.236 31.2896 176.981 31.2896C177.564 31.2896 178.025 31.1601 178.365 30.901C178.705 30.6419 178.875 30.3019 178.875 29.8809C178.875 29.6218 178.802 29.4113 178.657 29.2494C178.527 29.0713 178.341 28.9256 178.098 28.8122C177.871 28.6827 177.62 28.5774 177.345 28.4965L175.183 27.8893C174.066 27.5654 173.216 27.0716 172.633 26.4077C172.066 25.7438 171.783 24.9585 171.783 24.0517C171.783 23.2421 171.985 22.5377 172.39 21.9386C172.811 21.3233 173.386 20.8456 174.115 20.5056C174.86 20.1656 175.71 19.9955 176.665 19.9955C177.912 19.9955 179.013 20.2951 179.968 20.8942C180.924 21.4933 181.604 22.3353 182.008 23.4202L179.58 24.5618C179.353 23.9626 178.972 23.485 178.438 23.1287C177.904 22.7725 177.305 22.5944 176.641 22.5944C176.106 22.5944 175.685 22.7158 175.378 22.9587C175.07 23.2016 174.916 23.5174 174.916 23.906C174.916 24.1488 174.981 24.3593 175.111 24.5375C175.24 24.7156 175.418 24.8613 175.645 24.9747C175.888 25.088 176.163 25.1932 176.471 25.2904L178.584 25.9219C179.669 26.2457 180.503 26.7315 181.086 27.3792C181.685 28.0269 181.984 28.8203 181.984 29.7595C181.984 30.5529 181.774 31.2573 181.353 31.8726C180.932 32.4717 180.349 32.9412 179.604 33.2813C178.859 33.6213 177.985 33.7913 176.981 33.7913ZM188.732 33.6456C187.243 33.6456 186.085 33.2408 185.259 32.4312C184.45 31.6054 184.045 30.4476 184.045 28.9579V23.1287H181.762V20.287H182.005C182.652 20.287 183.154 20.117 183.51 19.7769C183.867 19.4369 184.045 18.943 184.045 18.2953V17.2752H187.227V20.287H190.263V23.1287H187.227V28.7879C187.227 29.2251 187.299 29.5975 187.445 29.9052C187.607 30.2128 187.85 30.4476 188.174 30.6096C188.514 30.7715 188.943 30.8524 189.461 30.8524C189.574 30.8524 189.704 30.8443 189.85 30.8282C190.012 30.812 190.165 30.7958 190.311 30.7796V33.4999C190.084 33.5323 189.825 33.5646 189.534 33.597C189.242 33.6294 188.975 33.6456 188.732 33.6456Z" fill="#F2F2F4"/>
</g>
  <g transform="scale(0.0055)">
<path fill="#fa8202" d="M2939 0h66a657 657 0 1 1-567 1038A659 659 0 0 1 2938 0Z"/><path fill="#efca0e" d="M5935 572a4799 4799 0 0 0-114 65v-45a5479 5479 0 0 1 113-32 37 37 0 0 1 1 12Z"/><path fill="#fffefe" d="m5935 572 7 1691H0V622a48865 48865 0 0 1 259 139 1203 1203 0 0 0 58 31 1384 1384 0 0 0 62 34 3237 3237 0 0 0 67 36 828 828 0 0 0 48 26 983 983 0 0 0 37 20 4921 4921 0 0 0 83 45l94 51a8529 8529 0 0 0 109 59l155 84 174 94a10729 10729 0 0 0 254 137l558 302a795597 795597 0 0 0 1057 572l699-403a42411 42411 0 0 0 415-239l99-57 171-98 218-125a35886 35886 0 0 1 219-126l168-97a14865 14865 0 0 0 154-89 15269 15269 0 0 0 143-82l69-40a890741 890741 0 0 1 214-123l122-70 115-66a4799 4799 0 0 1 114-65Z"/><path fill="#f0c40b" d="M5821 592v45l-115 66v-77a5674 5674 0 0 1 115-34Z"/><path fill="#efcd0c" d="M0 610a6232 6232 0 0 1 260 72l-1 79A48865 48865 0 0 0 0 622v-12Z"/><path fill="#f1be09" d="M5706 626v77l-122 70V665a6480 6480 0 0 1 122-39Z"/><path fill="#f2b809" d="M5584 665v108l-126 73V707a4646 4646 0 0 1 126-42Z"/><path fill="#f0c40a" d="M260 682a1211 1211 0 0 1 57 17v93a1203 1203 0 0 1-58-31 1561 1561 0 0 0 1-79Z"/><path fill="#f1be09" d="M317 699a1664 1664 0 0 1 62 19v108a1384 1384 0 0 1-62-34v-93Z"/><path fill="#f3b308" d="M5458 707v139a890741 890741 0 0 0-88 50V738l88-31Z"/><path fill="#f2b808" d="M379 718a5078 5078 0 0 0 67 21v123a3237 3237 0 0 1-67-36V718Z"/><path fill="#f4b007" d="M5370 738v158a3467 3467 0 0 1-69 40V764a2109 2109 0 0 1 69-26Z"/><path fill="#f3b308" d="M446 739a2023 2023 0 0 0 48 16v133a828 828 0 0 1-48-26V739Z"/><path fill="#f4b007" d="M494 755a1200 1200 0 0 1 37 13v140a983 983 0 0 1-37-20V755Z"/><path fill="#f4ab07" d="M5301 764v172a15269 15269 0 0 1-143 82V819a2642 2642 0 0 1 143-55Zm-4770 4a3031 3031 0 0 1 83 28v157a4921 4921 0 0 1-83-45V768Z"/><path fill="#f5a506" d="M614 796a2789 2789 0 0 1 94 34v174a797859 797859 0 0 1-94-51V796Z"/><path fill="#f5a807" d="M5158 819v199l-13 8V824c4-3 8-4 13-5Z"/><path fill="#f5a506" d="M5145 824v202l-141 81V882a3030 3030 0 0 1 141-58Z"/><path fill="#f69f06" d="M708 830a3534 3534 0 0 1 109 41v192a8529 8529 0 0 1-109-59V830Z"/><path fill="#f79805" d="M817 871a5165 5165 0 0 1 155 61v215l-155-84V871Z"/><path fill="#f69f06" d="M5004 882v225l-168 97V955a4677 4677 0 0 1 168-73Z"/><path fill="#f89204" d="M972 932a9373 9373 0 0 1 174 74v235l-174-94V932Z"/><path fill="#f79805" d="M4836 955v249a35886 35886 0 0 0-219 126v-271c72-36 145-71 219-104Z"/><path fill="#f98d04" d="M1146 1006a5683 5683 0 0 1 156 71v248l-156-84v-235Z"/><path fill="#f89204" d="M4617 1059v271l-218 125v-284a5599 5599 0 0 1 218-112Z"/><path fill="#fa8a04" d="M1302 1077c32 15 65 30 98 47v254a3455 3455 0 0 1-98-53v-248Z"/><path fill="#fa8503" d="M1400 1124c190 91 376 192 557 301-1 85 0 170 1 255a111602 111602 0 0 1-558-302v-254Z"/><path fill="#f98d04" d="M4399 1171v284l-171 98v-287c56-33 113-65 171-95Z"/><path fill="#fa8a04" d="M4228 1266v287l-99 57v-287c32-20 65-39 99-57Z"/><path fill="#fa8603" d="M4129 1323v287a42411 42411 0 0 1-415 239v-260a7061 7061 0 0 1 415-266Z"/><path fill="#fb8203" d="M1957 1425c273 162 534 341 784 538a9988 9988 0 0 1 243 201c231-208 474-400 730-575v260a350228 350228 0 0 1-699 403 795597 795597 0 0 1-1057-572c-1-85-2-170-1-255Z"/><path fill="#ebebec" d="M60 2263h5822l57 1-1 141-2885 1596A13654363 13654363 0 0 0 0 2336v-72l60-1Z"/><path fill="#fefefe" d="M5939 2264h9v1765H0V2336l3053 1665 2885-1596 1-141Z"/><path fill="#eaecec" d="M0 4030v-1h5948v1L3015 5750h-2A6670050 6670050 0 0 0 0 4030Z"/>
</g>
<def>
<filter xmlns="http://www.w3.org/2000/svg" id="filter0_d_15_239" x="24" y="3.24521" width="177.51" height="49.5096" filterUnits="userSpaceOnUse" color-interpolation-filters="sRGB">
<feFlood flood-opacity="0" result="BackgroundImageFix"/>
<feColorMatrix in="SourceAlpha" type="matrix" values="0 0 0 0 0 0 0 0 0 0 0 0 0 0 0 0 0 0 127 0" result="hardAlpha"/>
<feOffset dy="4"/>
<feGaussianBlur stdDeviation="2"/>
<feComposite in2="hardAlpha" operator="out"/>
<feColorMatrix type="matrix" values="0 0 0 0 0 0 0 0 0 0 0 0 0 0 0 0 0 0 0.25 0"/>
<feBlend mode="normal" in2="BackgroundImageFix" result="effect1_dropShadow_15_239"/>
<feBlend mode="normal" in="SourceGraphic" in2="effect1_dropShadow_15_239" result="shape"/>
</filter>
</def>
</svg>
