<svg width="24" height="24" viewBox="0 0 24 24" fill="none" xmlns="http://www.w3.org/2000/svg">
<path d="M23.498 6.186C23.2393 5.29168 22.5579 4.58768 21.684 4.32C19.8 3.6 12 3.6 12 3.6C12 3.6 4.2 3.6 2.316 4.32C1.44211 4.58768 0.760748 5.29168 0.502 6.186C0 8.094 0 12 0 12C0 12 0 15.906 0.502 17.814C0.760748 18.7083 1.44211 19.4123 2.316 19.68C4.2 20.4 12 20.4 12 20.4C12 20.4 19.8 20.4 21.684 19.68C22.5579 19.4123 23.2393 18.7083 23.498 17.814C24 15.906 24 12 24 12C24 12 24 8.094 23.498 6.186ZM9.6 15.6V8.4L15.8484 12L9.6 15.6Z" fill="white"/>
</svg>
